/* XPM */
static char * linkd_file_linkd_xpm[] = {
"16 16 6 1",
" 	c None",
".	c #000000",
"+	c #FFFFFF",
"@	c #2F2F2F",
"#	c #61C400",
"$	c #EA8400",
"                ",
"  .........     ",
"  .+++++++@.    ",
"  .+++++++@+.   ",
"  .+++++++@@@.  ",
"  .++++++++++.  ",
"  .+##+++$$++.  ",
"  .+###+$$$++.  ",
"  .+++#$$++++.  ",
"  .++++$+++++.  ",
"  .+++#$$++++.  ",
"  .+###+$$$++.  ",
"  .+##+++$$++.  ",
"  .++++++++++.  ",
"  .++++++++++.  ",
"  ............  "};
