/* XPM */
static char * linkd_man_xpm[] = {
"16 16 7 1",
" 	c None",
".	c #000000",
"+	c #FFFFFF",
"@	c #2F2F2F",
"#	c #0081A6",
"$	c #1FA3C9",
"%	c #0DBAEC",
"                ",
"  .........     ",
"  .+++++++@.    ",
"  .+++++++@+.   ",
"  .+++++++@@@.  ",
"  .++++++++++.  ",
"  .+###+####+.  ",
"  .+#$%#%%%#+.  ",
"  .+#%$#$$$#+.  ",
"  .+#$%#%%%#+.  ",
"  .+#%$#$$%#+.  ",
"  .+#%%#%%%#+.  ",
"  .+###%####+.  ",
"  .++++#+++++.  ",
"  .++++++++++.  ",
"  ............  "};
