/* XPM */
static char * linkd_file_org_xpm[] = {
"16 16 10 1",
" 	c None",
".	c #000000",
"+	c #FFFFFF",
"@	c #555555",
"#	c #C6C6C6",
"$	c #949494",
"%	c #D9D9D9",
"&	c #FFA500",
"*	c #FF0000",
"=	c #B22222",
"                ",
"  .........     ",
"  .+++++++@.    ",
"  .+#+++++@$.   ",
"  .+%+++%+@@@.  ",
"  .+#+++#++#+.  ",
"  .+&&&&%++%+.  ",
"  .+&&&&#++#+.  ",
"  .+%+++%++%+.  ",
"  .+******+#+.  ",
"  .+******+%+.  ",
"  .+#+++#++#+.  ",
"  .+%+======+.  ",
"  .+#+======+.  ",
"  .++++++++++.  ",
"  ............  "};
