/* XPM */
static char * linkd_tag_xpm[] = {
"16 16 4 1",
" 	c None",
".	c #000000",
"+	c #FFF600",
"@	c #C48F00",
"                ",
"                ",
"    .........   ",
"   .+++++++++.  ",
"  .+++++++++++. ",
"  .+@@+++@@+++. ",
"  .++@@+++@@++. ",
"  .+++@@+++@@+. ",
"  .++++@++++@+. ",
"  .+++@@+++@@+. ",
"  .++@@+++@@++. ",
"  .+@@+++@@+++. ",
"  .+++++++++++. ",
"   .+++++++++.  ",
"    .........   ",
"                "};
