/* XPM */
static char * linkd_file_conf_xpm[] = {
"16 16 6 1",
" 	c None",
".	c #000000",
"+	c #FFFFFF",
"@	c #2F2F2F",
"#	c #828282",
"$	c #585858",
"                ",
"  .........     ",
"  .+++++++@.    ",
"  .+++++++@+.   ",
"  .+++++++@@@.  ",
"  .++++++++++.  ",
"  .+++++##+++.  ",
"  .++++##++++.  ",
"  .++++##++#+.  ",
"  .++++####$+.  ",
"  .+++##$$$++.  ",
"  .++##$+++++.  ",
"  .+##$++++++.  ",
"  .##$+++++++.  ",
"  .#$++++++++.  ",
"  ............  "};
