/* XPM */
static char * linkd_file_wav_xpm[] = {
"16 16 6 1",
" 	c None",
".	c #000000",
"+	c #F4EE95",
"@	c #9ACAD4",
"#	c #2F2F2F",
"$	c #E50000",
"                ",
"  .........     ",
"  .++@@@@@#.    ",
"  .++@@@@@#+.   ",
"  .++@@@@@###.  ",
"  .++@@@@@+++.  ",
"  .++@@$@@+++.  ",
"  .++@@$@@$++.  ",
"  .+$@$$$@$++.  ",
"  .$$$$$$$$$$.  ",
"  .$+$$$$@$$+.  ",
"  .++@@$@@$++.  ",
"  .++@@$@@+++.  ",
"  .++@@@@@+++.  ",
"  .++@@@@@+++.  ",
"  ............  "};
