/* XPM */
static char * linkd_url_xpm[] = {
"16 16 7 1",
" 	c None",
".	c #000000",
"+	c #FFFFFF",
"@	c #555555",
"#	c #949494",
"$	c #D4D4D4",
"%	c #8C8C8C",
"                ",
"  .........     ",
"  .+++++++@.    ",
"  .+++++++@#.   ",
"  .+++++++@@@.  ",
"  .++$%%%$+++.  ",
"  .+$%%$%%$++.  ",
"  .$%$%$%$%$+.  ",
"  .$%%%%%%%$+.  ",
"  .%%$%$%$%%+.  ",
"  .$%%%%%%%$+.  ",
"  .$%$%$%$%$+.  ",
"  .+$%%$%%$++.  ",
"  .++$%%%$+++.  ",
"  .++++++++++.  ",
"  ............  "};
