/* XPM */
static char * linkd_command_xpm[] = {
"16 16 4 1",
" 	c None",
".	c #000000",
"+	c #003DD9",
"@	c #FFF600",
"                ",
"                ",
"    .........   ",
"   .+++++++++.  ",
"  .+++++@+++++. ",
"  .++++@@@++++. ",
"  .++++@@@++++. ",
"  .++++@@@++++. ",
"  .+++++@+++++. ",
"  .+++++@+++++. ",
"  .+++++++++++. ",
"  .+++++@+++++. ",
"  .+++++@+++++. ",
"   .+++++++++.  ",
"    .........   ",
"                "};
