/* XPM */
static char * linkd_file_el_xpm[] = {
"16 16 6 1",
" 	c None",
".	c #000000",
"+	c #FFFFFF",
"@	c #555555",
"#	c #949494",
"$	c #608E08",
"                ",
"  .........     ",
"  .+++++++@.    ",
"  .+++++++@#.   ",
"  .+++++++@@@.  ",
"  .+$$$++++++.  ",
"  .+++$$+++++.  ",
"  .++++$$++++.  ",
"  .++++$$++++.  ",
"  .++++$$++++.  ",
"  .+++$$$++++.  ",
"  .++$$+$$+++.  ",
"  .+$$+++$$$+.  ",
"  .++++++++++.  ",
"  .++++++++++.  ",
"  ............  "};
