/* XPM */
static char * linkd_file_ardour_xpm[] = {
"16 16 6 1",
" 	c None",
".	c #000000",
"+	c #FFFFFF",
"@	c #2F2F2F",
"#	c #D29900",
"$	c #00ADD2",
"                ",
"  .........     ",
"  .+++++++@.    ",
"  .+++++++@+.   ",
"  .++++#++@@@.  ",
"  .++#+##++++.  ",
"  .##########.  ",
"  .++#+##++++.  ",
"  .++++#+++++.  ",
"  .++++++$+++.  ",
"  .+$++$$$+++.  ",
"  .$$$$$$$$$$.  ",
"  .+$++$$$+++.  ",
"  .++++++$+++.  ",
"  .++++++++++.  ",
"  ............  "};
