/* XPM */
static char * linkd_info_xpm[] = {
"16 16 6 1",
" 	c None",
".	c #000000",
"+	c #FFFFFF",
"@	c #2F2F2F",
"#	c #0081A6",
"$	c #0DBAEC",
"                ",
"  .........     ",
"  .+++++++@.    ",
"  .+++++++@+.   ",
"  .+++++++@@@.  ",
"  .++#####+++.  ",
"  .+#$$$$$#++.  ",
"  .#$$$+$$$#+.  ",
"  .#$$$$$$$#+.  ",
"  .#$$++$$$#+.  ",
"  .#$$$+$$$#+.  ",
"  .#$$$+$$$#+.  ",
"  .+#$$++$#++.  ",
"  .++#####+++.  ",
"  .++++++++++.  ",
"  ............  "};
