/* XPM */
static char * linkd_file_generic_xpm[] = {
"16 16 5 1",
" 	c None",
".	c #000000",
"+	c #FFFFFF",
"@	c #2F2F2F",
"#	c #BABABA",
"                ",
"  .........     ",
"  .+++++++@.    ",
"  .+++++++@+.   ",
"  .+##+#++@@@.  ",
"  .++++++++++.  ",
"  .+###+##+++.  ",
"  .++++++++++.  ",
"  .+#+##+##++.  ",
"  .++++++++++.  ",
"  .+##+++#+++.  ",
"  .++++++++++.  ",
"  .+##+###+++.  ",
"  .++++++++++.  ",
"  .++++++++++.  ",
"  ............  "};
